<?xml version="1.0" encoding="UTF-8" standalone="no"?>
<svg
   id="kanso_logo_final_v2_balanced"
   version="1.1"
   viewBox="0 0 230 64"
   height="64mm"
   width="230mm"
   xmlns="http://www.w3.org/2000/svg"
   xmlns:svg="http://www.w3.org/2000/svg">
  <defs
     id="defs2" />
  <metadata
     id="metadata5">
    <!-- Metadata based on the original file -->
  </metadata>
  <g
     id="kanso-logo-group">
    <!-- 
      PARTE 1: L'ICONA (MODIFICATA)
      - Il raggio del cerchio è stato ridotto da 32 a 27 per renderlo meno dominante.
      - L'icona della timeline è stata riposizionata per essere perfettamente centrata
        nel nuovo cerchio, mantenendo la sua scala di 1.8.
    -->
    <circle
       id="background-circle"
       cx="32"
       cy="32"
       r="27"
       fill="#009688" />
    <g
       id="timeline-icon-white"
       transform="translate(10.4, 10.4) scale(1.8)"
       fill="none"
       stroke="#ffffff"
       stroke-width="1.5"
       stroke-linecap="round"
       stroke-linejoin="round">
      <path
         stroke="none"
         d="M0 0h24v24H0z"
         fill="none" />
      <path
         d="M4 16l6 -7l5 5l5 -6" />
      <path
         d="M15 14m-1 0a1 1 0 1 0 2 0a1 1 0 1 0 -2 0" />
      <path
         d="M10 9m-1 0a1 1 0 1 0 2 0a1 1 0 1 0 -2 0" />
      <path
         d="M4 16m-1 0a1 1 0 1 0 2 0a1 1 0 1 0 -2 0" />
      <path
         d="M20 8m-1 0a1 1 0 1 0 2 0a1 1 0 1 0 -2 0" />
    </g>
    <!-- 
      PARTE 2: IL TESTO (MODIFICATO)
      - Avvicinato all'icona (x="80") per mantenere una spaziatura corretta.
      - Dimensione del font leggermente ridotta per un look più raffinato.
      - Posizione Y ricalibrata per un perfetto allineamento verticale.
    -->
    <text
       id="kanso-text"
       x="70"
       y="50"
       font-family="sans-serif"
       font-size="50"
       font-weight="bold"
       fill="#009688"
       letter-spacing="1">
      Kanso
    </text>
  </g>
</svg>